<svg width="18" height="14" viewBox="0 0 18 14" fill="none" xmlns="http://www.w3.org/2000/svg">
<path d="M4.2397 0.577529L0.910536 3.91086L0.840536 3.99003C0.716267 4.15046 0.654811 4.35073 0.667699 4.55326C0.680587 4.75578 0.766933 4.94664 0.910536 5.09003L0.989703 5.1592C1.15014 5.28347 1.3504 5.34492 1.55293 5.33203C1.75545 5.31915 1.94631 5.2328 2.0897 5.0892L3.9997 3.17503V12.8334L4.00554 12.9309C4.02923 13.1337 4.12659 13.3208 4.27914 13.4566C4.43169 13.5924 4.6288 13.6675 4.83304 13.6675L4.93054 13.6617C5.13339 13.6378 5.3204 13.5402 5.45605 13.3875C5.5917 13.2348 5.66655 13.0376 5.66637 12.8334V3.18086L7.5772 5.0892L7.65637 5.1592C7.82388 5.29029 8.03519 5.35237 8.24699 5.33271C8.4588 5.31305 8.65506 5.21313 8.79558 5.05344C8.9361 4.89374 9.01023 4.68636 9.00279 4.47378C8.99534 4.26119 8.90688 4.0595 8.75554 3.91003L5.4172 0.576695L5.33887 0.507529C5.17843 0.383259 4.97817 0.321803 4.77564 0.334691C4.57312 0.347579 4.38226 0.433925 4.23887 0.577529H4.2397ZM13.1664 0.335862L13.0689 0.341695C12.8662 0.365576 12.6793 0.463023 12.5436 0.615552C12.408 0.768081 12.3331 0.965084 12.333 1.1692V10.8192L10.4222 8.91086L10.343 8.84086C10.1755 8.71129 9.96484 8.6504 9.75397 8.67056C9.54311 8.69073 9.34784 8.79043 9.20786 8.94941C9.06788 9.10839 8.99369 9.31471 9.00038 9.52643C9.00707 9.73814 9.09413 9.93937 9.24387 10.0892L12.5805 13.4225L12.6589 13.4925C12.8193 13.6168 13.0196 13.6783 13.2221 13.6654C13.4246 13.6525 13.6155 13.5661 13.7589 13.4225L17.0889 10.0892L17.1589 10.01C17.2831 9.8496 17.3446 9.64933 17.3317 9.4468C17.3188 9.24428 17.2325 9.05342 17.0889 8.91003L17.0097 8.84086C16.8493 8.71659 16.649 8.65514 16.4465 8.66803C16.244 8.68091 16.0531 8.76726 15.9097 8.91086L13.9997 10.8225V1.1692L13.9939 1.07253C13.9702 0.869669 13.8728 0.682572 13.7203 0.546769C13.5677 0.410966 13.3706 0.335913 13.1664 0.335862Z" fill="white"/>
</svg>
